<mxfile host="Electron" agent="Mozilla/5.0 (Windows NT 10.0; Win64; x64) AppleWebKit/537.36 (KHTML, like Gecko) draw.io/28.1.2 Chrome/138.0.7204.243 Electron/37.4.0 Safari/537.36" version="28.1.2">
  <diagram id="IIY0XOjxNf52_zMxVgUN" name="Seite-1">
    <mxGraphModel dx="652" dy="574" grid="1" gridSize="10" guides="1" tooltips="1" connect="1" arrows="1" fold="1" page="1" pageScale="1" pageWidth="827" pageHeight="1169" math="0" shadow="0">
      <root>
        <mxCell id="0" />
        <mxCell id="1" parent="0" />
        <mxCell id="5CFDCs4QwO91VqUPwMyL-1" value="start" style="ellipse;whiteSpace=wrap;html=1;" vertex="1" parent="1">
          <mxGeometry x="309" y="70" width="66" height="60" as="geometry" />
        </mxCell>
        <mxCell id="5CFDCs4QwO91VqUPwMyL-5" value="Process: means when your app shall do something itself" style="shape=document;whiteSpace=wrap;html=1;boundedLbl=1;" vertex="1" parent="1">
          <mxGeometry x="20" y="260" width="120" height="80" as="geometry" />
        </mxCell>
        <mxCell id="5CFDCs4QwO91VqUPwMyL-6" value="" style="shape=flexArrow;endArrow=classic;html=1;rounded=0;" edge="1" parent="1">
          <mxGeometry width="50" height="50" relative="1" as="geometry">
            <mxPoint x="140" y="299.71" as="sourcePoint" />
            <mxPoint x="210" y="299.71" as="targetPoint" />
          </mxGeometry>
        </mxCell>
        <mxCell id="5CFDCs4QwO91VqUPwMyL-12" value="END" style="ellipse;whiteSpace=wrap;html=1;rounded=1;" vertex="1" parent="1">
          <mxGeometry x="319" y="370" width="80" height="80" as="geometry" />
        </mxCell>
        <mxCell id="5CFDCs4QwO91VqUPwMyL-14" value="" style="edgeStyle=orthogonalEdgeStyle;rounded=0;orthogonalLoop=1;jettySize=auto;html=1;" edge="1" parent="1" source="5CFDCs4QwO91VqUPwMyL-1" target="5CFDCs4QwO91VqUPwMyL-4">
          <mxGeometry relative="1" as="geometry">
            <mxPoint x="342" y="150" as="sourcePoint" />
            <mxPoint x="342" y="230" as="targetPoint" />
          </mxGeometry>
        </mxCell>
        <mxCell id="5CFDCs4QwO91VqUPwMyL-17" value="" style="edgeStyle=orthogonalEdgeStyle;rounded=0;orthogonalLoop=1;jettySize=auto;html=1;" edge="1" parent="1" source="5CFDCs4QwO91VqUPwMyL-4" target="5CFDCs4QwO91VqUPwMyL-9">
          <mxGeometry relative="1" as="geometry" />
        </mxCell>
        <mxCell id="5CFDCs4QwO91VqUPwMyL-4" value="define variablen:&amp;nbsp;&lt;div&gt;&lt;font style=&quot;color: rgb(0, 102, 204);&quot;&gt;name&lt;/font&gt;: &quot;Ali&quot;&lt;/div&gt;&lt;div&gt;&lt;font style=&quot;color: rgb(0, 127, 255);&quot;&gt;country&lt;/font&gt;:&quot;Iran&quot;&lt;/div&gt;&lt;div&gt;&lt;font style=&quot;color: rgb(0, 76, 153);&quot;&gt;age&lt;/font&gt;: &quot;48&quot;&lt;/div&gt;&lt;div&gt;&lt;font style=&quot;color: rgb(0, 102, 204);&quot;&gt;result&lt;/font&gt;: NULL&lt;/div&gt;" style="shape=process;whiteSpace=wrap;html=1;backgroundOutline=1;" vertex="1" parent="1">
          <mxGeometry x="282" y="150" width="120" height="70" as="geometry" />
        </mxCell>
        <mxCell id="5CFDCs4QwO91VqUPwMyL-18" value="" style="edgeStyle=orthogonalEdgeStyle;rounded=0;orthogonalLoop=1;jettySize=auto;html=1;" edge="1" parent="1" source="5CFDCs4QwO91VqUPwMyL-9">
          <mxGeometry relative="1" as="geometry">
            <mxPoint x="359.0000000000002" y="370" as="targetPoint" />
          </mxGeometry>
        </mxCell>
        <mxCell id="5CFDCs4QwO91VqUPwMyL-9" value="Text Generator Process" style="shape=process;whiteSpace=wrap;html=1;backgroundOutline=1;" vertex="1" parent="1">
          <mxGeometry x="210" y="260" width="298" height="80" as="geometry" />
        </mxCell>
        <mxCell id="5CFDCs4QwO91VqUPwMyL-23" value="" style="whiteSpace=wrap;html=1;aspect=fixed;" vertex="1" parent="1">
          <mxGeometry x="90" y="590" width="630" height="630" as="geometry" />
        </mxCell>
        <mxCell id="5CFDCs4QwO91VqUPwMyL-27" value="" style="edgeStyle=orthogonalEdgeStyle;rounded=0;orthogonalLoop=1;jettySize=auto;html=1;" edge="1" parent="1" source="5CFDCs4QwO91VqUPwMyL-24" target="5CFDCs4QwO91VqUPwMyL-26">
          <mxGeometry relative="1" as="geometry" />
        </mxCell>
        <mxCell id="5CFDCs4QwO91VqUPwMyL-24" value="start" style="ellipse;whiteSpace=wrap;html=1;aspect=fixed;" vertex="1" parent="1">
          <mxGeometry x="229" y="640" width="50" height="50" as="geometry" />
        </mxCell>
        <mxCell id="5CFDCs4QwO91VqUPwMyL-25" value="Text Generator Process" style="text;html=1;align=center;verticalAlign=middle;whiteSpace=wrap;rounded=0;" vertex="1" parent="1">
          <mxGeometry x="120" y="600" width="140" height="20" as="geometry" />
        </mxCell>
        <mxCell id="5CFDCs4QwO91VqUPwMyL-29" value="" style="edgeStyle=orthogonalEdgeStyle;rounded=0;orthogonalLoop=1;jettySize=auto;html=1;" edge="1" parent="1" source="5CFDCs4QwO91VqUPwMyL-26" target="5CFDCs4QwO91VqUPwMyL-28">
          <mxGeometry relative="1" as="geometry" />
        </mxCell>
        <mxCell id="5CFDCs4QwO91VqUPwMyL-26" value="input : name , country , age" style="shape=parallelogram;perimeter=parallelogramPerimeter;whiteSpace=wrap;html=1;fixedSize=1;" vertex="1" parent="1">
          <mxGeometry x="151" y="720" width="206" height="60" as="geometry" />
        </mxCell>
        <mxCell id="5CFDCs4QwO91VqUPwMyL-31" value="" style="edgeStyle=orthogonalEdgeStyle;rounded=0;orthogonalLoop=1;jettySize=auto;html=1;" edge="1" parent="1" source="5CFDCs4QwO91VqUPwMyL-28" target="5CFDCs4QwO91VqUPwMyL-30">
          <mxGeometry relative="1" as="geometry" />
        </mxCell>
        <mxCell id="5CFDCs4QwO91VqUPwMyL-41" value="Yes" style="edgeLabel;html=1;align=center;verticalAlign=middle;resizable=0;points=[];" vertex="1" connectable="0" parent="5CFDCs4QwO91VqUPwMyL-31">
          <mxGeometry x="-0.3667" relative="1" as="geometry">
            <mxPoint as="offset" />
          </mxGeometry>
        </mxCell>
        <mxCell id="5CFDCs4QwO91VqUPwMyL-37" value="" style="edgeStyle=orthogonalEdgeStyle;rounded=0;orthogonalLoop=1;jettySize=auto;html=1;" edge="1" parent="1" source="5CFDCs4QwO91VqUPwMyL-28" target="5CFDCs4QwO91VqUPwMyL-36">
          <mxGeometry relative="1" as="geometry" />
        </mxCell>
        <mxCell id="5CFDCs4QwO91VqUPwMyL-40" value="No" style="edgeLabel;html=1;align=center;verticalAlign=middle;resizable=0;points=[];" vertex="1" connectable="0" parent="5CFDCs4QwO91VqUPwMyL-37">
          <mxGeometry x="-0.2056" y="-1" relative="1" as="geometry">
            <mxPoint as="offset" />
          </mxGeometry>
        </mxCell>
        <mxCell id="5CFDCs4QwO91VqUPwMyL-28" value="all input exists" style="rhombus;whiteSpace=wrap;html=1;" vertex="1" parent="1">
          <mxGeometry x="214" y="810" width="80" height="80" as="geometry" />
        </mxCell>
        <mxCell id="5CFDCs4QwO91VqUPwMyL-33" value="" style="edgeStyle=orthogonalEdgeStyle;rounded=0;orthogonalLoop=1;jettySize=auto;html=1;" edge="1" parent="1" source="5CFDCs4QwO91VqUPwMyL-30" target="5CFDCs4QwO91VqUPwMyL-32">
          <mxGeometry relative="1" as="geometry" />
        </mxCell>
        <mxCell id="5CFDCs4QwO91VqUPwMyL-30" value="&lt;font style=&quot;color: rgb(0, 76, 153);&quot;&gt;result&amp;nbsp;&lt;/font&gt;= Hello my name is +&amp;nbsp;&lt;font style=&quot;color: rgb(0, 102, 204);&quot;&gt;name&amp;nbsp;&lt;/font&gt;&amp;nbsp;+ and i am +&amp;nbsp;&lt;font style=&quot;color: rgb(0, 76, 153);&quot;&gt;age +&amp;nbsp;&lt;/font&gt;years old and I come from +&amp;nbsp;&amp;nbsp;&lt;font style=&quot;color: rgb(0, 102, 204);&quot;&gt;country&lt;/font&gt;" style="whiteSpace=wrap;html=1;" vertex="1" parent="1">
          <mxGeometry x="126" y="950" width="256" height="60" as="geometry" />
        </mxCell>
        <mxCell id="5CFDCs4QwO91VqUPwMyL-35" value="" style="edgeStyle=orthogonalEdgeStyle;rounded=0;orthogonalLoop=1;jettySize=auto;html=1;" edge="1" parent="1" source="5CFDCs4QwO91VqUPwMyL-32" target="5CFDCs4QwO91VqUPwMyL-34">
          <mxGeometry relative="1" as="geometry" />
        </mxCell>
        <mxCell id="5CFDCs4QwO91VqUPwMyL-32" value="Print result" style="whiteSpace=wrap;html=1;" vertex="1" parent="1">
          <mxGeometry x="194" y="1040" width="120" height="60" as="geometry" />
        </mxCell>
        <mxCell id="5CFDCs4QwO91VqUPwMyL-34" value="end&amp;nbsp;" style="ellipse;whiteSpace=wrap;html=1;" vertex="1" parent="1">
          <mxGeometry x="214" y="1120" width="80" height="80" as="geometry" />
        </mxCell>
        <mxCell id="5CFDCs4QwO91VqUPwMyL-39" style="edgeStyle=orthogonalEdgeStyle;rounded=0;orthogonalLoop=1;jettySize=auto;html=1;entryX=1;entryY=0.5;entryDx=0;entryDy=0;" edge="1" parent="1" source="5CFDCs4QwO91VqUPwMyL-36" target="5CFDCs4QwO91VqUPwMyL-34">
          <mxGeometry relative="1" as="geometry">
            <Array as="points">
              <mxPoint x="520" y="850" />
              <mxPoint x="520" y="1160" />
            </Array>
          </mxGeometry>
        </mxCell>
        <mxCell id="5CFDCs4QwO91VqUPwMyL-36" value="Print: Error&amp;nbsp;&amp;nbsp;" style="whiteSpace=wrap;html=1;" vertex="1" parent="1">
          <mxGeometry x="354" y="820" width="120" height="60" as="geometry" />
        </mxCell>
        <mxCell id="5CFDCs4QwO91VqUPwMyL-42" value="&lt;h1 style=&quot;margin-top: 0px;&quot;&gt;Pseudo Code&lt;/h1&gt;&lt;div&gt;START&lt;/div&gt;&lt;div&gt;&lt;span style=&quot;white-space: pre;&quot;&gt;&#x9;&lt;/span&gt;SET name : Ali&lt;/div&gt;&lt;div&gt;&lt;span style=&quot;white-space: pre;&quot;&gt;&#x9;&lt;/span&gt;SET country : Iran&lt;/div&gt;&lt;div&gt;&lt;span style=&quot;white-space: pre;&quot;&gt;&#x9;&lt;/span&gt;SET age : 48&lt;/div&gt;&lt;div&gt;&lt;span style=&quot;white-space: pre;&quot;&gt;&#x9;&lt;/span&gt;SET result : NULL&lt;br&gt;&lt;/div&gt;&lt;div&gt;&lt;br&gt;&lt;/div&gt;&lt;div&gt;&lt;span style=&quot;white-space: pre;&quot;&gt;&#x9;&lt;/span&gt;&lt;font style=&quot;background-color: transparent; text-align: center; color: rgb(0, 76, 153);&quot;&gt;result&amp;nbsp;&lt;/font&gt;&lt;span style=&quot;background-color: transparent; color: light-dark(rgb(0, 0, 0), rgb(255, 255, 255)); text-align: center;&quot;&gt;= Hello my name is +&amp;nbsp;&lt;/span&gt;&lt;font style=&quot;background-color: transparent; text-align: center; color: rgb(0, 102, 204);&quot;&gt;name&amp;nbsp;&lt;/font&gt;&lt;span style=&quot;background-color: transparent; color: light-dark(rgb(0, 0, 0), rgb(255, 255, 255)); text-align: center;&quot;&gt;&amp;nbsp;+ and i am +&amp;nbsp;&lt;/span&gt;&lt;font style=&quot;background-color: transparent; text-align: center; color: rgb(0, 76, 153);&quot;&gt;age &lt;span style=&quot;white-space: pre;&quot;&gt;&#x9;&lt;/span&gt;&lt;span style=&quot;white-space: pre;&quot;&gt;&#x9;&lt;/span&gt;&lt;span style=&quot;white-space: pre;&quot;&gt;&#x9;&lt;/span&gt;+&amp;nbsp;&lt;/font&gt;&lt;span style=&quot;background-color: transparent; color: light-dark(rgb(0, 0, 0), rgb(255, 255, 255)); text-align: center;&quot;&gt;years old and I come from +&amp;nbsp;&amp;nbsp;&lt;/span&gt;&lt;font style=&quot;background-color: transparent; text-align: center; color: rgb(0, 102, 204);&quot;&gt;country&lt;/font&gt;&lt;span style=&quot;background-color: transparent; color: light-dark(rgb(0, 0, 0), rgb(255, 255, 255));&quot;&gt;&amp;nbsp;&lt;/span&gt;&lt;/div&gt;&lt;div&gt;&lt;span style=&quot;white-space: pre;&quot;&gt;&#x9;&lt;/span&gt;PRINT result&lt;br&gt;&lt;/div&gt;&lt;div&gt;END&lt;/div&gt;" style="text;html=1;whiteSpace=wrap;overflow=hidden;rounded=0;" vertex="1" parent="1">
          <mxGeometry x="490" y="50" width="320" height="230" as="geometry" />
        </mxCell>
      </root>
    </mxGraphModel>
  </diagram>
</mxfile>
